<?xml version="1.0" encoding="iso-8859-1"?>
<!-- Generator: Adobe Illustrator 18.0.0, SVG Export Plug-In . SVG Version: 6.00 Build 0)  -->
<!DOCTYPE svg PUBLIC "-//W3C//DTD SVG 1.1//EN" "http://www.w3.org/Graphics/SVG/1.1/DTD/svg11.dtd">
<svg version="1.1" id="Capa_1" xmlns="http://www.w3.org/2000/svg" xmlns:xlink="http://www.w3.org/1999/xlink" x="0px" y="0px"
	 viewBox="0 0 350 350" style="enable-background:new 0 0 350 350;" xml:space="preserve">
<g>
	<path d="M174.367,102.487c16.938,0,30.719-8.972,30.719-20s-13.78-20-30.719-20s-30.719,8.972-30.719,20
		S157.429,102.487,174.367,102.487z"/>
	<path d="M220.682,330H95.389c-19.515,0-35.391-15.875-35.391-35.39v-19.218c9.604,7.996,21.945,12.811,35.391,12.811h99.951
		c-0.542-3.391-0.838-6.859-0.838-10.393c0-3.285,0.26-6.507,0.733-9.662H95.389c-19.515,0-35.391-15.876-35.391-35.39v-19.061
		c9.605,7.998,21.943,12.818,35.391,12.818h113.079v-3.092c0-5.986,1.045-11.73,2.946-17.071H95.389
		c-19.515,0-35.391-15.876-35.391-35.39v-18.905c9.605,7.998,21.943,12.817,35.391,12.817h157.957
		c13.446,0,25.785-4.82,35.391-12.817v18.905c0,3.376-0.485,6.64-1.373,9.735c10.318,6.752,18.051,17.133,21.373,29.32v-38.893
		v-0.163v-61.477v-0.157V55.39c0-30.542-24.849-55.39-55.391-55.39H95.389C64.846,0,39.998,24.848,39.998,55.39v53.938v0.157v61.477
		v0.163v61.633c0,0.019,0.002,0.037,0.002,0.055h-0.002v61.797c0,30.542,24.848,55.39,55.391,55.39h157.957
		c15.118,0,28.835-6.094,38.84-15.947c-6.543,3.79-13.848,6.487-21.692,7.826C270.493,341.878,239.201,347.417,220.682,330z
		 M114.607,38.752c16.109-10.488,37.332-16.265,59.76-16.265s43.65,5.776,59.76,16.265c17.436,11.352,27.037,26.884,27.037,43.735
		s-9.602,32.384-27.037,43.735c-16.109,10.488-37.332,16.265-59.76,16.265s-43.65-5.776-59.76-16.265
		C97.172,114.871,87.57,99.339,87.57,82.487S97.172,50.104,114.607,38.752z"/>
	<path d="M298.536,245.984v-17.061c0-21.248-17.286-38.535-38.534-38.535c-21.248,0-38.534,17.287-38.534,38.535v17.061
		c-7.158,8.652-11.466,19.745-11.466,31.826c0,24.448,17.467,45.175,41.533,49.282h0.001c0.278,0.047,0.56,0.082,0.84,0.125v-16.338
		c0-4.205,3.421-7.626,7.626-7.626c4.205,0,7.626,3.421,7.626,7.626v16.338c0.28-0.043,0.562-0.078,0.841-0.125
		c24.066-4.107,41.533-24.834,41.533-49.282C310.002,265.729,305.694,254.637,298.536,245.984z M260.002,227.81
		c-8.504,0-16.516,2.14-23.534,5.9v-4.787c0-12.977,10.558-23.535,23.534-23.535c12.976,0,23.534,10.558,23.534,23.535v4.787
		C276.518,229.95,268.506,227.81,260.002,227.81z"/>
</g>
<g>
</g>
<g>
</g>
<g>
</g>
<g>
</g>
<g>
</g>
<g>
</g>
<g>
</g>
<g>
</g>
<g>
</g>
<g>
</g>
<g>
</g>
<g>
</g>
<g>
</g>
<g>
</g>
<g>
</g>
</svg>
